# xmcd
#
# Track frame offsets:
#	150
#	18674
#	36261
#	58518
#	82051
#	97556
#	113311
#	129046
#	152919
#	173502
#	203285
#
# Disc length: 2988 seconds
#
# Revision: 1
# Processed by: cddbd v1.5.2PL0 Copyright (c) Steve Scherf et al.
# Submitted via: audiograbber 1.83.01
#
DISCID=710baa0b
DTITLE=TooSlimandtheTaildraggers - Blue Heart
DYEAR=2013
DGENRE=Blues
TTITLE0=Wash My Hands
TTITLE1=Minutes Seem Like Hours
TTITLE2=Blue Heart
TTITLE3=Make It Sound Happy
TTITLE4=Good To See You Smile Again
TTITLE5=When Whisky Was My Friend
TTITLE6=If You Broke MY Heart
TTITLE7=New Years Blues
TTITLE8=Shape Of Blues To Come
TTITLE9=Preacher
TTITLE10=Angels Are Back
EXTD=
EXTT0=
EXTT1=
EXTT2=
EXTT3=
EXTT4=
EXTT5=
EXTT6=
EXTT7=
EXTT8=
EXTT9=
EXTT10=
PLAYORDER=
